# xmcd
#
# Track frame offsets:
#	150
#	11917
#	25197
#	42142
#	57260
#	71767
#	87062
#	95415
#	109997
#	123297
#	141365
#	154877
#	167667
#	180240
#	200557
#	215455
#	231025
#	240707
#	253935
#	265722
#
# Disc length: 3715 seconds
#
# Revision: 1
# Processed by: cddbd v1.5.1PL0 Copyright (c) Steve Scherf et al.
# Submitted via: CDex 1.50Beta5
#
DISCID=160e8114
DTITLE=Various Artist - 世界の子守歌
DYEAR=1900
DGENRE=(Doyo)
TTITLE0=五木の子守歌
TTITLE1=江戸子守歌
TTITLE2=島原地方の子守歌
TTITLE3=越後の子守歌
TTITLE4=中国地方の子守歌
TTITLE5=揺りかごの歌
TTITLE6=ゆりかご
TTITLE7=大阪の子守歌
TTITLE8=沖縄の子守歌
TTITLE9=こもりうた
TTITLE10=ブラームスの子守歌
TTITLE11=シューベルトの子守歌
TTITLE12=眠りの精
TTITLE13=モーツァルトの子守歌
TTITLE14=ジョスランの子守歌
TTITLE15=アイルランドの子守歌
TTITLE16=コザックの子守歌
TTITLE17=お山の子守歌
TTITLE18=ハッシャ・バイ
TTITLE19=ラ・ラ・ルー
EXTD=
EXTT0=
EXTT1=
EXTT2=
EXTT3=
EXTT4=
EXTT5=
EXTT6=
EXTT7=
EXTT8=
EXTT9=
EXTT10=
EXTT11=
EXTT12=
EXTT13=
EXTT14=
EXTT15=
EXTT16=
EXTT17=
EXTT18=
EXTT19=
PLAYORDER=
